<svg width="55" height="52" viewBox="0 0 55 52" fill="none" xmlns="http://www.w3.org/2000/svg">
<path d="M51.5625 52H3.4375C1.54 52 0 50.4634 0 48.5625V14.1875C0 12.29 1.54 10.75 3.4375 10.75H51.5625C53.4634 10.75 55 12.29 55 14.1875V48.5625C55 50.4634 53.4634 52 51.5625 52ZM6.875 45.125H48.125V17.625H6.875V45.125ZM41.25 17.625H13.75V7.31248C13.75 3.52436 16.83 0.440918 20.6216 0.440918H34.3784C38.17 0.440918 41.25 3.52436 41.25 7.31248V17.625ZM20.625 10.75H34.375V7.31248L20.6216 7.31592L20.625 10.75ZM27.5 38.25L26.5547 38.1194L2.49219 31.2444L4.38281 24.634L27.5 31.2375L50.6206 24.634L52.5078 31.2444L28.4453 38.1194L27.5 38.25Z" fill="#AEBECC"/>
</svg>
