<svg width="15" height="15" viewBox="0 0 15 15" fill="none" xmlns="http://www.w3.org/2000/svg">
<path d="M7.5 0C3.3587 0 0 3.3587 0 7.5C0 11.6413 3.3587 15 7.5 15C11.6413 15 15 11.6413 15 7.5C15 3.3587 11.6413 0 7.5 0ZM12.1467 5.69022L6.44022 11.3804C6.26087 11.3804 6.16304 11.3804 5.9837 11.3804L2.51087 7.8913C2.51087 7.71196 2.51087 7.61413 2.51087 7.43478L3.88043 6.06522C4.05978 6.06522 4.15761 6.06522 4.33696 6.06522L6.21196 7.94022L10.3043 3.84783C10.4837 3.84783 10.5815 3.84783 10.7609 3.84783L12.1304 5.21739C12.1467 5.39674 12.1467 5.51087 12.1467 5.69022Z" fill="#3069FC"/>
</svg>
