<svg width="45" height="45" viewBox="0 0 45 45" fill="none" xmlns="http://www.w3.org/2000/svg">
<path d="M0 41.4049V37.8098H13.769H27.538V41.4049V45H13.769H0V41.4049ZM35.0217 41.4049V37.8098H40.0109H45V41.4049V45H40.0109H35.0217V41.4049ZM0 22.5489V18.9293H13.769H27.538V22.5489V26.1685H13.769H0V22.5489ZM35.0217 22.5489V18.9293H40.0109H45V22.5489V26.1685H40.0109H35.0217V22.5489ZM0 3.61957V0H13.769H27.538V3.61957V7.23913H13.769H0V3.61957ZM35.0217 3.61957V0H40.0109H45V3.61957V7.23913H40.0109H35.0217V3.61957Z" fill="#AEBECC"/>
</svg>
