<svg width="55" height="45" viewBox="0 0 55 45" fill="none" xmlns="http://www.w3.org/2000/svg">
<path d="M55 12.5V45H12.5V37.5H47.5V12.5H55ZM35 32.5H0V0H42.5V32.5H35ZM7.5 25H35V7.5H7.5V25ZM21.25 11.25C20.2611 11.25 19.2944 11.5432 18.4721 12.0927C17.6499 12.6421 17.009 13.423 16.6306 14.3366C16.2522 15.2502 16.1531 16.2555 16.3461 17.2255C16.539 18.1954 17.0152 19.0863 17.7145 19.7855C18.4137 20.4848 19.3046 20.961 20.2745 21.1539C21.2445 21.3469 22.2498 21.2478 23.1634 20.8694C24.077 20.491 24.8579 19.8501 25.4073 19.0279C25.9568 18.2056 26.25 17.2389 26.25 16.25C26.25 14.9239 25.7232 13.6521 24.7855 12.7145C23.8479 11.7768 22.5761 11.25 21.25 11.25Z" fill="#AEBECC"/>
</svg>
