<svg width="30" height="34" viewBox="0 0 30 34" fill="none" xmlns="http://www.w3.org/2000/svg">
<path fill-rule="evenodd" clip-rule="evenodd" d="M18.8407 0.489718C10.8052 -1.59742 2.62819 3.17824 0.50429 11.1731C-1.61961 19.1679 3.15917 27.3749 11.1946 29.4621L27.0177 33.6364L23.0531 27.5872C26.1327 25.6416 28.5044 22.5639 29.4956 18.7787C31.6195 10.7839 26.8407 2.57686 18.8407 0.489718ZM16.3721 16.6504V18.03H13.5402V14.0326H14.9562C16.1243 14.0326 17.0801 13.0773 17.0801 11.9102C17.0801 10.7428 16.1243 9.78749 14.9562 9.78749C13.788 9.78749 12.8323 10.7428 12.8323 11.9102H10.0004C10.0004 9.18617 12.2305 6.95754 14.9562 6.95754C17.6819 6.95754 19.9119 9.18617 19.9119 11.9102C19.9119 14.1388 18.4252 16.049 16.3721 16.6504ZM16.3367 22.2396H13.5048V19.8343H16.3367V22.2396Z" fill="#3069FC"/>
</svg>
