<svg width="170" height="171" viewBox="0 0 170 171" fill="none" xmlns="http://www.w3.org/2000/svg">
<path d="M133.722 45.9672L162.841 47.5672L144.829 74.6672L164.942 85.5672L144.829 96.4672L162.841 123.567L133.722 125.167L139.326 150.867L112.709 140.367L102.803 169.567L84.992 148.767L67.0808 169.567L57.1746 140.367L30.558 150.867L36.1615 125.167L7.04327 123.567L25.0545 96.4672L4.94196 85.5672L25.0545 74.6672L7.04327 47.5672L36.1615 45.9672L30.558 20.2672L57.1746 30.6672L67.0808 1.56715L84.992 22.3672L102.803 1.56715L112.709 30.6672L139.326 20.2672L133.722 45.9672Z" fill="#3069FC"/>
<path d="M147.771 85.1094L169.511 104.546L138.519 114.46L147.418 135.535L124.903 131.485L122.042 163.898L98.3032 146.961L86.6273 170.531L72.3992 145.707L46.4249 162.323L45.5068 134.955L18.5275 140.011L29.0293 111.02L1.68479 102.596L22.1129 86.025L0.372314 66.5884L31.3647 56.6744L22.4658 35.5998L44.9808 39.6496L47.8413 7.23615L71.5805 24.1736L83.2565 0.603271L97.547 25.3497L123.459 8.81135L124.455 36.2423L151.356 31.1232L140.917 60.0362L168.199 68.5389L147.771 85.1094Z" fill="#3069FC"/>
</svg>
