<?xml version="1.0" standalone="no"?>
<!DOCTYPE svg PUBLIC "-//W3C//DTD SVG 20010904//EN"
 "http://www.w3.org/TR/2001/REC-SVG-20010904/DTD/svg10.dtd">
<svg version="1.0" xmlns="http://www.w3.org/2000/svg"
 width="832.000000pt" height="832.000000pt" viewBox="0 0 832.000000 832.000000"
 preserveAspectRatio="xMidYMid meet">
<metadata>
Created by potrace 1.11, written by Peter Selinger 2001-2013
</metadata>
<g transform="translate(0.000000,832.000000) scale(0.100000,-0.100000)"
fill="#000000" stroke="none">
<path d="M2359 8299 c-24 -4 -63 -9 -86 -12 -57 -8 -196 -56 -205 -70 -4 -7
-8 -8 -8 -4 0 5 -21 -4 -47 -19 -206 -119 -354 -312 -414 -539 -25 -96 -32
-283 -14 -363 7 -29 13 -56 14 -60 26 -121 108 -275 196 -369 19 -21 35 -41
35 -45 0 -4 7 -8 15 -8 8 0 15 -4 15 -8 0 -4 21 -24 48 -44 51 -40 172 -110
172 -101 0 3 6 0 14 -6 40 -33 218 -69 342 -68 82 0 122 5 239 32 11 2 49 17
85 32 250 104 442 332 507 601 16 69 22 274 9 342 -11 58 -37 142 -62 198 -13
29 -24 57 -24 62 0 6 -4 10 -10 10 -5 0 -10 6 -10 13 0 34 -144 194 -246 274
-90 69 -272 136 -404 148 -25 2 -45 4 -45 5 0 5 -80 4 -116 -1z"/>
<path d="M4550 8076 c-85 -47 -198 -167 -242 -257 -46 -95 -50 -111 -54 -236
-2 -69 1 -117 11 -150 8 -26 14 -48 14 -48 0 0 4 -13 10 -30 41 -113 158 -245
266 -300 19 -10 20 -20 20 -350 l0 -340 -540 -3 c-297 -2 -549 -3 -560 -3 -11
0 -121 0 -245 0 -124 0 -232 0 -240 0 -519 2 -781 -2 -870 -13 -19 -3 -60 -7
-90 -11 -30 -3 -62 -8 -70 -10 -8 -3 -33 -7 -55 -10 -73 -11 -90 -14 -160 -30
-38 -10 -74 -18 -80 -19 -57 -12 -265 -82 -365 -123 -191 -78 -464 -238 -621
-363 -110 -87 -127 -103 -227 -201 -142 -141 -219 -235 -259 -318 -24 -48 -28
-68 -27 -141 0 -47 2 -94 5 -105 12 -49 52 -118 125 -220 44 -60 86 -120 94
-132 8 -12 58 -81 110 -153 52 -73 102 -142 110 -155 8 -12 35 -50 60 -85 25
-34 52 -72 60 -84 53 -78 166 -232 172 -234 5 -2 8 -9 8 -15 0 -20 89 -96 144
-122 132 -62 301 -40 408 54 20 17 38 28 40 24 10 -21 -4 -437 -17 -505 -4
-19 -14 -140 -21 -243 -1 -27 -3 -50 -4 -50 -1 0 -3 -22 -5 -50 -2 -27 -6 -86
-10 -130 -4 -44 -8 -98 -10 -120 -11 -141 -17 -214 -20 -245 -2 -19 -7 -73
-10 -120 -3 -47 -8 -107 -11 -135 -3 -27 -7 -79 -9 -115 -3 -36 -7 -87 -9
-115 -3 -27 -8 -84 -11 -125 -4 -41 -8 -91 -9 -110 -2 -19 -6 -80 -10 -135 -4
-55 -9 -111 -11 -125 -2 -14 -7 -61 -10 -105 -5 -88 -12 -171 -20 -255 -2 -30
-7 -89 -11 -130 -3 -41 -8 -95 -10 -120 -16 -175 -16 -290 1 -346 9 -33 22
-65 27 -71 6 -7 7 -13 2 -13 -5 0 -4 -4 1 -8 6 -4 23 -26 39 -49 39 -58 89
-98 166 -135 55 -27 79 -32 153 -35 179 -6 325 79 405 235 37 73 46 111 57
247 13 162 17 211 20 254 2 25 6 73 9 106 4 33 8 92 11 130 2 39 7 97 10 130
3 33 7 89 10 125 3 36 8 85 10 110 2 25 7 77 10 115 3 39 8 99 10 135 3 36 8
90 10 120 2 30 6 82 9 115 3 33 8 92 11 130 3 39 8 93 10 120 3 28 7 82 10
120 6 76 12 149 19 235 11 120 19 227 20 267 1 24 3 43 6 43 3 0 5 19 6 43 1
58 20 296 29 357 1 12 18 15 79 15 42 1 80 -2 84 -5 4 -3 8 -16 9 -30 6 -87
16 -209 29 -370 3 -36 6 -85 8 -110 4 -44 12 -138 22 -255 2 -33 7 -87 10
-120 3 -33 7 -82 9 -110 5 -71 14 -174 21 -252 3 -38 7 -93 9 -123 2 -30 4
-55 5 -55 1 0 3 -18 4 -40 4 -58 16 -212 22 -270 2 -27 6 -79 8 -115 3 -36 7
-87 10 -115 3 -27 7 -81 11 -120 3 -38 8 -97 11 -130 4 -33 8 -85 9 -115 2
-30 6 -80 9 -110 3 -30 7 -89 10 -130 3 -41 8 -97 11 -125 3 -27 8 -69 10 -92
20 -177 185 -337 371 -359 66 -8 62 -8 118 0 67 9 167 57 217 103 55 50 108
133 129 203 17 56 19 171 6 305 -3 28 -8 88 -11 135 -3 47 -8 96 -10 110 -2
14 -7 66 -9 115 -3 50 -8 106 -10 125 -3 19 -8 73 -11 120 -10 139 -14 193
-19 244 -3 27 -8 87 -11 135 -3 47 -8 106 -11 131 -2 25 -7 80 -10 123 -3 43
-7 97 -10 120 -2 23 -6 75 -9 115 -3 40 -8 94 -10 120 -3 26 -7 81 -10 122 -3
41 -8 100 -11 130 -3 30 -7 78 -9 106 -2 28 -6 79 -9 115 -3 35 -8 100 -11
144 -3 44 -8 96 -10 115 -2 19 -7 74 -11 122 -3 48 -7 100 -9 115 -10 82 -17
300 -19 659 -2 221 -6 406 -10 412 -3 6 -2 13 4 17 6 4 8 11 4 17 -9 15 -10
118 -1 118 5 0 5 5 1 12 -4 6 -9 205 -11 442 l-4 431 610 0 c336 0 612 -2 612
-5 1 -3 2 -162 3 -355 1 -192 6 -366 10 -385 31 -134 162 -240 301 -244 18 -1
47 4 106 19 59 14 147 98 182 174 20 44 21 64 23 406 2 198 3 367 3 375 1 11
15 15 61 17 46 1 78 10 135 37 243 117 296 432 106 624 -23 23 -125 93 -136
92 -3 0 -6 0 -7 1 -14 4 -53 10 -98 15 -30 4 -57 8 -59 10 -2 2 -4 154 -4 338
l0 336 61 41 c62 40 182 163 182 185 0 6 7 17 15 24 8 7 13 16 10 20 -3 5 -1
11 4 14 10 6 36 84 47 136 13 66 10 165 -6 235 -17 72 -76 205 -91 205 -5 0
-9 6 -9 13 0 21 -125 132 -184 163 -41 21 -58 26 -67 17 -7 -7 -12 -83 -13
-235 l-1 -223 -30 -54 c-51 -93 -141 -143 -244 -136 -97 7 -177 60 -218 145
-24 50 -24 44 -26 282 -1 128 -6 221 -12 226 -6 5 -32 -4 -65 -22z m-3040
-2937 c-4 -583 -5 -709 -10 -709 -6 1 -13 10 -105 145 -38 55 -71 102 -74 105
-3 3 -10 12 -16 21 -5 9 -23 35 -40 59 -54 77 -59 85 -130 185 -38 55 -73 102
-77 103 -19 8 -5 43 28 69 20 15 49 40 66 56 17 15 33 27 37 27 4 0 16 8 27
18 41 37 283 176 292 167 2 -2 3 -113 2 -246z"/>
<path d="M5826 4354 c-61 -22 -95 -76 -101 -162 -3 -32 -7 -73 -9 -92 -3 -19
-7 -66 -10 -105 -4 -38 -8 -86 -11 -105 -3 -19 -8 -69 -11 -110 -4 -62 -9 -78
-27 -92 -12 -10 -26 -18 -30 -18 -5 0 -45 -16 -89 -35 -75 -32 -82 -33 -108
-20 -16 8 -30 18 -32 22 -1 5 -21 21 -43 38 -22 16 -49 38 -60 48 -43 39 -232
190 -273 219 -48 33 -89 40 -142 24 -46 -14 -389 -356 -406 -406 -19 -56 -7
-109 39 -170 23 -30 44 -57 47 -60 5 -4 100 -122 185 -228 5 -7 15 -18 20 -25
56 -65 66 -86 59 -121 -3 -20 -9 -36 -13 -36 -7 0 -46 -109 -43 -121 1 -4 -7
-14 -16 -23 -18 -16 -40 -20 -142 -31 -30 -3 -77 -7 -105 -10 -27 -3 -75 -7
-105 -10 -50 -4 -180 -21 -222 -28 -25 -4 -71 -43 -90 -74 -13 -24 -16 -67
-17 -281 -2 -259 3 -307 38 -342 29 -31 67 -50 107 -54 55 -7 160 -17 219 -22
28 -2 66 -6 85 -9 34 -4 161 -16 190 -17 24 -1 48 -27 61 -66 7 -20 21 -56 32
-81 12 -25 21 -49 22 -53 0 -3 3 -10 7 -13 8 -8 -7 -41 -26 -61 -6 -6 -38 -45
-71 -87 -33 -43 -63 -77 -67 -77 -5 0 -8 -4 -8 -10 0 -5 -8 -19 -17 -29 -10
-11 -23 -26 -28 -33 -6 -7 -31 -38 -56 -68 -70 -85 -88 -114 -93 -154 -9 -72
6 -94 183 -273 93 -93 183 -180 201 -193 35 -25 103 -29 142 -9 19 9 250 190
268 209 3 3 28 23 55 45 28 22 55 44 61 50 63 56 75 59 128 33 21 -11 47 -21
57 -23 33 -7 109 -44 110 -54 2 -14 6 -30 8 -33 2 -2 4 -19 6 -38 10 -121 17
-190 21 -225 2 -22 6 -65 9 -95 16 -183 22 -202 82 -247 l36 -28 281 0 281 0
37 25 c55 37 66 69 84 250 3 36 8 79 9 95 2 17 6 65 10 107 4 42 8 85 10 95 2
10 4 33 4 51 1 40 24 63 81 82 25 8 47 17 50 20 5 5 59 27 90 36 13 4 118 -72
187 -136 12 -11 24 -20 27 -20 3 0 16 -10 28 -23 13 -12 39 -34 58 -49 60 -47
80 -62 108 -86 62 -53 142 -70 192 -40 21 12 321 308 367 361 42 49 35 149
-14 202 -10 11 -41 49 -68 85 -28 36 -53 67 -56 70 -4 3 -35 41 -70 85 -34 44
-68 85 -73 91 -53 57 -65 93 -44 127 12 17 32 68 44 107 10 36 28 70 37 71 7
0 21 2 32 4 11 2 49 7 85 10 36 3 85 8 110 11 57 7 84 10 190 18 157 12 212
39 238 116 8 21 12 117 12 273 0 237 0 240 -25 286 -32 57 -83 91 -144 97 -25
2 -66 6 -91 9 -25 3 -70 8 -100 11 -30 3 -68 6 -85 8 -16 2 -66 7 -110 11
-104 10 -107 10 -127 19 -9 4 -29 40 -44 79 -15 40 -32 81 -37 92 -18 34 -18
60 1 81 9 10 35 41 57 69 22 27 45 55 50 61 6 6 24 28 40 49 105 133 127 162
143 180 59 66 75 128 51 188 -14 34 -324 355 -374 386 -39 25 -92 31 -132 15
-26 -10 -162 -111 -183 -135 -3 -3 -30 -25 -61 -50 -31 -24 -90 -72 -132 -106
-79 -66 -113 -77 -152 -49 -11 7 -45 22 -75 32 -97 34 -93 28 -105 164 -2 30
-7 75 -10 100 -2 25 -7 68 -9 95 -2 28 -7 77 -11 110 -3 33 -8 77 -10 98 -6
55 -39 102 -88 126 -39 18 -62 20 -287 19 -183 0 -255 -4 -284 -14z m433
-1348 c69 -15 212 -73 219 -88 2 -5 8 -8 14 -8 10 0 93 -66 132 -106 35 -35
105 -139 127 -190 43 -101 62 -190 61 -294 -1 -60 -3 -82 -17 -149 -7 -35 -26
-93 -38 -116 -6 -11 -12 -25 -13 -30 -4 -26 -80 -130 -132 -183 -62 -63 -179
-145 -193 -136 -5 3 -9 1 -9 -4 0 -11 -112 -48 -182 -61 -102 -18 -310 7 -371
46 -6 4 -14 8 -17 8 -18 0 -142 82 -181 118 -63 59 -156 188 -164 227 -1 3 -8
21 -17 40 -8 19 -19 53 -23 75 -5 22 -10 47 -12 55 -22 84 6 318 46 385 3 6 6
15 7 22 3 21 90 147 130 188 21 22 57 55 79 72 50 38 173 103 197 103 10 0 18
5 18 11 0 5 3 8 8 5 4 -2 34 1 67 8 56 12 211 13 264 2z"/>
</g>
</svg>
