<svg width="114" height="26" viewBox="0 0 114 26" fill="none" xmlns="http://www.w3.org/2000/svg">
<path d="M7.09401 5.43878C8.57529 5.43878 9.7761 4.23423 9.7761 2.74835C9.7761 1.26247 8.57529 0.0579224 7.09401 0.0579224C5.61273 0.0579224 4.41192 1.26247 4.41192 2.74835C4.41192 4.23423 5.61273 5.43878 7.09401 5.43878Z" fill="#3069FC"/>
<path d="M9.95969 8.55125H13.7988V10.6614C13.7988 11.1889 14.2458 11.6373 14.7717 11.6373C15.2976 11.6373 15.7446 11.1889 15.7446 10.6614V8.55125H15.8498C16.5071 8.55125 17.0593 7.99734 17.0593 7.33792C17.0593 6.6785 16.5071 6.12459 15.8498 6.12459H15.7446V3.98807C16.3757 3.67155 16.7701 3.03851 16.7701 2.35271C16.7701 1.64054 16.3494 0.98112 15.692 0.690976C15.6657 0.690976 15.6394 0.690976 15.6131 0.690976C15.5868 0.717352 15.5868 0.743729 15.5868 0.770106V1.93068C15.5868 2.37909 15.2187 2.74836 14.7717 2.74836C14.3247 2.74836 13.9565 2.37909 13.9565 1.93068V0.770106C13.9565 0.743729 13.9302 0.717352 13.9302 0.690976C13.9039 0.664599 13.8776 0.664599 13.8514 0.690976C13.194 1.0075 12.7733 1.64054 12.7733 2.35271C12.7733 3.03851 13.1677 3.67155 13.7988 3.98807V6.12459H7.09353C2.43931 6.12459 0.309414 9.23704 0.204234 9.36893C-0.0850112 9.79096 -0.0587162 10.3449 0.230529 10.7405L2.33413 13.6947C2.57079 14.0376 2.93892 14.1959 3.30705 14.1959C3.5437 14.1959 3.78036 14.1167 4.01701 13.9585C4.0696 13.9057 4.14849 13.853 4.20108 13.8002V14.6443L3.46482 23.6124C3.41223 24.3509 3.93813 25.0103 4.70068 25.0631C4.72698 25.0631 4.77957 25.0631 4.80586 25.0631C5.48953 25.0631 6.06802 24.5356 6.14691 23.8234L6.85687 15.1982H7.38277L8.09274 23.8234C8.14533 24.5619 8.80271 25.1159 9.53897 25.0631C10.2752 25.0103 10.8274 24.3509 10.7748 23.6124L10.0386 14.6443L9.95969 8.55125ZM2.75485 10.1339C3.09669 9.81733 3.57 9.44806 4.22737 9.15791L4.20108 12.1912L2.75485 10.1339Z" fill="#3069FC"/>
<path d="M24.5004 17.5457L22.9227 17.3874C22.8701 17.3874 22.8175 17.3347 22.7912 17.2819C22.7386 17.0973 22.6597 16.939 22.5809 16.7544C22.5546 16.7016 22.5546 16.6489 22.6072 16.5961L23.6064 15.3564C23.7641 15.1718 23.7641 14.8817 23.5801 14.697L22.6072 13.7211C22.4231 13.5364 22.1338 13.5364 21.9498 13.6947L20.7139 14.697C20.6613 14.7234 20.6087 14.7498 20.5561 14.7234C20.3984 14.6443 20.2143 14.5651 20.0302 14.5124C19.9776 14.486 19.9251 14.4596 19.9251 14.3805L19.7673 12.7979C19.741 12.5341 19.5306 12.3495 19.2677 12.3495H17.9003C17.6374 12.3495 17.427 12.5341 17.4007 12.7979L17.243 14.3805C17.243 14.4332 17.1904 14.486 17.1378 14.5124C16.9537 14.5651 16.796 14.6443 16.6119 14.7234C16.5593 14.7498 16.5067 14.7498 16.4541 14.697L15.2183 13.6947C15.0342 13.5364 14.7449 13.5364 14.5609 13.7211L13.588 14.697C13.4039 14.8817 13.4039 15.1718 13.5617 15.3564L14.5609 16.5961C14.5872 16.6489 14.6135 16.7016 14.5872 16.7544C14.5083 16.9127 14.4294 17.0973 14.3768 17.2819C14.3505 17.3347 14.3242 17.3874 14.2453 17.3874L12.6676 17.5457C12.4047 17.5721 12.2206 17.7831 12.2206 18.0469V19.4185C12.2206 19.6822 12.4047 19.8932 12.6676 19.9196L14.2453 20.0779C14.2979 20.0779 14.3505 20.1306 14.3768 20.1834C14.4294 20.368 14.5083 20.5263 14.5872 20.7109C14.6135 20.7637 14.6135 20.8164 14.5609 20.8692L13.5617 22.1089C13.4039 22.2935 13.4039 22.5837 13.588 22.7683L14.5609 23.7442C14.7449 23.9289 15.0342 23.9289 15.2183 23.7706L16.4541 22.7683C16.5067 22.7419 16.5593 22.7155 16.6119 22.7419C16.7697 22.8211 16.9537 22.9002 17.1378 22.9529C17.1904 22.9793 17.243 23.0057 17.243 23.0848L17.4007 24.6674C17.427 24.9312 17.6374 25.1158 17.9003 25.1158H19.3203C19.5832 25.1158 19.7936 24.9312 19.8199 24.6674L19.9776 23.0848C19.9776 23.0321 20.0302 22.9793 20.0828 22.9529C20.2669 22.9002 20.4247 22.8211 20.6087 22.7419C20.6613 22.7155 20.7139 22.7155 20.7665 22.7683L22.0024 23.7706C22.1864 23.9289 22.4757 23.9289 22.6597 23.7442L23.6327 22.7683C23.8167 22.5837 23.8167 22.2935 23.659 22.1089L22.6597 20.8692C22.6334 20.8164 22.6072 20.7637 22.6334 20.7109C22.7123 20.5527 22.7912 20.368 22.8438 20.1834C22.8701 20.1306 22.8964 20.0779 22.9753 20.0779L24.553 19.9196C24.8159 19.8932 25 19.6822 25 19.4185V18.0469C24.9474 17.7831 24.7633 17.5721 24.5004 17.5457ZM18.6366 20.8955C17.427 20.8955 16.4804 19.9196 16.4804 18.7327C16.4804 17.5193 17.4533 16.5698 18.6366 16.5698C19.8462 16.5698 20.7928 17.5457 20.7928 18.7327C20.7928 19.9196 19.8199 20.8955 18.6366 20.8955Z" fill="#3069FC"/>
<path d="M37.1039 10.472L35.1839 7.77203C34.9679 7.79603 34.7439 7.80803 34.5119 7.80803H32.2559V10.472H31.3679V2.07203H34.5119C35.5839 2.07203 36.4239 2.32803 37.0319 2.84003C37.6399 3.35203 37.9439 4.05603 37.9439 4.95203C37.9439 5.60803 37.7759 6.16403 37.4399 6.62003C37.1119 7.06803 36.6399 7.39203 36.0239 7.59203L38.0759 10.472H37.1039ZM34.4879 7.05203C35.3199 7.05203 35.9559 6.86803 36.3959 6.50003C36.8359 6.13203 37.0559 5.61603 37.0559 4.95203C37.0559 4.27203 36.8359 3.75203 36.3959 3.39203C35.9559 3.02403 35.3199 2.84003 34.4879 2.84003H32.2559V7.05203H34.4879Z" fill="#16161D"/>
<path d="M47.0598 9.70403V10.472H41.1198V2.07203H46.8798V2.84003H42.0078V5.82803H46.3518V6.58403H42.0078V9.70403H47.0598Z" fill="#16161D"/>
<path d="M58.9511 2.07203V10.472H58.0991V3.75203L54.7991 9.40403H54.3791L51.0791 3.78803V10.472H50.2271V2.07203H50.9591L54.6071 8.30003L58.2191 2.07203H58.9511Z" fill="#16161D"/>
<path d="M66.4401 10.544C65.6081 10.544 64.8521 10.36 64.1721 9.99203C63.5001 9.61603 62.9721 9.10403 62.5881 8.45603C62.2121 7.80803 62.0241 7.08003 62.0241 6.27203C62.0241 5.46403 62.2121 4.73603 62.5881 4.08803C62.9721 3.44003 63.5001 2.93203 64.1721 2.56403C64.8521 2.18803 65.6081 2.00003 66.4401 2.00003C67.2721 2.00003 68.0201 2.18403 68.6841 2.55203C69.3561 2.92003 69.8841 3.43203 70.2681 4.08803C70.6521 4.73603 70.8441 5.46403 70.8441 6.27203C70.8441 7.08003 70.6521 7.81203 70.2681 8.46803C69.8841 9.11603 69.3561 9.62403 68.6841 9.99203C68.0201 10.36 67.2721 10.544 66.4401 10.544ZM66.4401 9.75203C67.1041 9.75203 67.7041 9.60403 68.2401 9.30803C68.7761 9.00403 69.1961 8.58803 69.5001 8.06003C69.8041 7.52403 69.9561 6.92803 69.9561 6.27203C69.9561 5.61603 69.8041 5.02403 69.5001 4.49603C69.1961 3.96003 68.7761 3.54403 68.2401 3.24803C67.7041 2.94403 67.1041 2.79203 66.4401 2.79203C65.7761 2.79203 65.1721 2.94403 64.6281 3.24803C64.0921 3.54403 63.6681 3.96003 63.3561 4.49603C63.0521 5.02403 62.9001 5.61603 62.9001 6.27203C62.9001 6.92803 63.0521 7.52403 63.3561 8.06003C63.6681 8.58803 64.0921 9.00403 64.6281 9.30803C65.1721 9.60403 65.7761 9.75203 66.4401 9.75203Z" fill="#16161D"/>
<path d="M80.9345 2.07203V10.472H80.2025L74.8025 3.65603V10.472H73.9145V2.07203H74.6465L80.0585 8.88803V2.07203H80.9345Z" fill="#16161D"/>
<path d="M86.3882 2.84003H83.4362V2.07203H90.2282V2.84003H87.2762V10.472H86.3882V2.84003Z" fill="#16161D"/>
<path d="M37.504 21.456V23.016H31V14.616H37.348V16.176H32.932V18H36.832V19.512H32.932V21.456H37.504Z" fill="#3069FC"/>
<path d="M40.1308 14.616H43.9468C44.8588 14.616 45.6628 14.792 46.3588 15.144C47.0628 15.488 47.6068 15.976 47.9908 16.608C48.3828 17.24 48.5788 17.976 48.5788 18.816C48.5788 19.656 48.3828 20.392 47.9908 21.024C47.6068 21.656 47.0628 22.148 46.3588 22.5C45.6628 22.844 44.8588 23.016 43.9468 23.016H40.1308V14.616ZM43.8508 21.42C44.6908 21.42 45.3588 21.188 45.8548 20.724C46.3588 20.252 46.6108 19.616 46.6108 18.816C46.6108 18.016 46.3588 17.384 45.8548 16.92C45.3588 16.448 44.6908 16.212 43.8508 16.212H42.0748V21.42H43.8508Z" fill="#3069FC"/>
<path d="M54.8568 23.16C53.6568 23.16 52.7208 22.828 52.0488 22.164C51.3848 21.5 51.0528 20.552 51.0528 19.32V14.616H52.9968V19.248C52.9968 20.752 53.6208 21.504 54.8688 21.504C55.4768 21.504 55.9408 21.324 56.2608 20.964C56.5808 20.596 56.7408 20.024 56.7408 19.248V14.616H58.6608V19.32C58.6608 20.552 58.3248 21.5 57.6528 22.164C56.9888 22.828 56.0568 23.16 54.8568 23.16Z" fill="#3069FC"/>
<path d="M65.6819 23.16C64.8259 23.16 64.0499 22.976 63.3539 22.608C62.6659 22.232 62.1219 21.716 61.7219 21.06C61.3299 20.396 61.1339 19.648 61.1339 18.816C61.1339 17.984 61.3299 17.24 61.7219 16.584C62.1219 15.92 62.6659 15.404 63.3539 15.036C64.0499 14.66 64.8299 14.472 65.6939 14.472C66.4219 14.472 67.0779 14.6 67.6619 14.856C68.2539 15.112 68.7499 15.48 69.1499 15.96L67.9019 17.112C67.3339 16.456 66.6299 16.128 65.7899 16.128C65.2699 16.128 64.8059 16.244 64.3979 16.476C63.9899 16.7 63.6699 17.016 63.4379 17.424C63.2139 17.832 63.1019 18.296 63.1019 18.816C63.1019 19.336 63.2139 19.8 63.4379 20.208C63.6699 20.616 63.9899 20.936 64.3979 21.168C64.8059 21.392 65.2699 21.504 65.7899 21.504C66.6299 21.504 67.3339 21.172 67.9019 20.508L69.1499 21.66C68.7499 22.148 68.2539 22.52 67.6619 22.776C67.0699 23.032 66.4099 23.16 65.6819 23.16Z" fill="#3069FC"/>
<path d="M76.9106 21.216H73.0106L72.2666 23.016H70.2746L74.0186 14.616H75.9386L79.6946 23.016H77.6546L76.9106 21.216ZM76.2986 19.74L74.9666 16.524L73.6346 19.74H76.2986Z" fill="#3069FC"/>
<path d="M82.9642 16.2H80.2762V14.616H87.5962V16.2H84.9082V23.016H82.9642V16.2Z" fill="#3069FC"/>
<path d="M89.7222 14.616H91.6662V23.016H89.7222V14.616Z" fill="#3069FC"/>
<path d="M98.8077 23.16C97.9357 23.16 97.1477 22.972 96.4437 22.596C95.7477 22.22 95.1997 21.704 94.7997 21.048C94.4077 20.384 94.2117 19.64 94.2117 18.816C94.2117 17.992 94.4077 17.252 94.7997 16.596C95.1997 15.932 95.7477 15.412 96.4437 15.036C97.1477 14.66 97.9357 14.472 98.8077 14.472C99.6797 14.472 100.464 14.66 101.16 15.036C101.856 15.412 102.404 15.932 102.804 16.596C103.204 17.252 103.404 17.992 103.404 18.816C103.404 19.64 103.204 20.384 102.804 21.048C102.404 21.704 101.856 22.22 101.16 22.596C100.464 22.972 99.6797 23.16 98.8077 23.16ZM98.8077 21.504C99.3037 21.504 99.7517 21.392 100.152 21.168C100.552 20.936 100.864 20.616 101.088 20.208C101.32 19.8 101.436 19.336 101.436 18.816C101.436 18.296 101.32 17.832 101.088 17.424C100.864 17.016 100.552 16.7 100.152 16.476C99.7517 16.244 99.3037 16.128 98.8077 16.128C98.3117 16.128 97.8637 16.244 97.4637 16.476C97.0637 16.7 96.7477 17.016 96.5157 17.424C96.2917 17.832 96.1797 18.296 96.1797 18.816C96.1797 19.336 96.2917 19.8 96.5157 20.208C96.7477 20.616 97.0637 20.936 97.4637 21.168C97.8637 21.392 98.3117 21.504 98.8077 21.504Z" fill="#3069FC"/>
<path d="M113.649 14.616V23.016H112.053L107.865 17.916V23.016H105.945V14.616H107.553L111.729 19.716V14.616H113.649Z" fill="#3069FC"/>
</svg>
